<?xml version="1.0" standalone="no"?><!-- Generator: Gravit.io --><svg xmlns="http://www.w3.org/2000/svg" xmlns:xlink="http://www.w3.org/1999/xlink" style="isolation:isolate" viewBox="0 0 200 200" width="200" height="200"><defs><clipPath id="_clipPath_RfUUgMNqWA4RkXPYq5IkgZh2eA8M1tJ1"><rect width="200" height="200"/></clipPath></defs><g clip-path="url(#_clipPath_RfUUgMNqWA4RkXPYq5IkgZh2eA8M1tJ1)"><g style="isolation:isolate" id="Background"><path d=" M 1 100 C 1 45.360413 45.360413 1 100 1 C 154.639587 1 199 45.360413 199 100 C 199 154.639587 154.639587 199 100 199 C 45.360413 199 1 154.639587 1 100 Z " fill="rgb(255,255,255)"/></g><g style="isolation:isolate" id="Marker"><g id="Group"><g id="app_icon_launcher_round"><g id="g3756"><g id="g3754"><g id="g3752"><path d=" M 100.138074 10 C 68.617589 10 43.179696 35.161256 43.179696 66.681986 C 43.179696 97.926322 99.861682 190 99.861682 190 C 99.861682 190 156.820304 97.926322 156.820304 66.681986 C 156.82006 35.161256 131.382411 10 100.138074 10 Z  M 100.138074 110.921417 C 74.700425 110.921417 53.963161 90.184397 53.963161 64.746504 C 53.963161 39.308611 74.700425 18.571347 100.138074 18.571347 C 125.575967 18.571347 146.313231 39.308611 146.313231 64.746504 C 146.036839 90.46079 125.29933 110.921417 100.138074 110.921417 L 100.138074 110.921417 Z " fill="rgb(54,111,255)"/></g></g></g></g><path d=" M 50.05 63.55 C 50.05 35.981845 72.431845 13.6 100 13.6 C 127.568155 13.6 149.95 35.981845 149.95 63.55 C 149.95 91.118155 127.568155 113.5 100 113.5 C 72.431845 113.5 50.05 91.118155 50.05 63.55 Z " fill="rgb(54,111,255)"/></g></g><g style="isolation:isolate" id="Icon"><g id="Group" filter="url(#ovTAktN7ZmhJrCxorolpjKlD7JiPKq54)"><path d=" M 122.184258 80.043279 C 122.184258 77.215397 124.480139 74.919516 127.30802 74.919516 C 130.135901 74.919516 132.431782 77.215397 132.431782 80.043279 C 132.431782 82.87116 130.135901 85.167041 127.30802 85.167041 C 124.480139 85.167041 122.184258 82.87116 122.184258 80.043279 Z " fill="rgb(255,255,255)"/><path d=" M 103.850177 80.044339 C 103.850177 77.216458 106.146058 74.920577 108.973939 74.920577 C 111.801821 74.920577 114.097702 77.216458 114.097702 80.044339 C 114.097702 82.87222 111.801821 85.168101 108.973939 85.168101 C 106.146058 85.168101 103.850177 82.87222 103.850177 80.044339 Z " fill="rgb(255,255,255)"/><path d=" M 67.384093 80.043875 C 67.384093 77.215994 69.679974 74.920113 72.507855 74.920113 C 75.335736 74.920113 77.631617 77.215994 77.631617 80.043875 C 77.631617 82.871756 75.335736 85.167637 72.507855 85.167637 C 69.679974 85.167637 67.384093 82.871756 67.384093 80.043875 Z " fill="rgb(255,255,255)"/><path d=" M 85.294301 80.044449 C 85.294301 77.216568 87.590182 74.920687 90.418063 74.920687 C 93.245944 74.920687 95.541825 77.216568 95.541825 80.044449 C 95.541825 82.87233 93.245944 85.168211 90.418063 85.168211 C 87.590182 85.168211 85.294301 82.87233 85.294301 80.044449 Z " fill="rgb(255,255,255)"/><path d=" M 94.338292 32.497793 L 81.640272 32.497793 L 67.382847 71.705714 L 132.432351 72.819574 L 132.432351 57.671061 L 80.749183 62.794822 L 94.338292 32.497793 Z " fill="rgb(255,255,255)"/></g><defs><filter id="ovTAktN7ZmhJrCxorolpjKlD7JiPKq54" x="-200%" y="-200%" width="400%" height="400%"><feOffset xmlns="http://www.w3.org/2000/svg" in="SourceAlpha" result="offOut" dx="1" dy="1"/><feGaussianBlur xmlns="http://www.w3.org/2000/svg" in="offOut" result="blurOut" stdDeviation="1"/><feComponentTransfer xmlns="http://www.w3.org/2000/svg" in="blurOut" result="opacOut"><feFuncA xmlns="http://www.w3.org/2000/svg" type="table" tableValues="0 0.5"/></feComponentTransfer><feBlend xmlns="http://www.w3.org/2000/svg" in="SourceGraphic" in2="opacOut" mode="normal"/></filter></defs></g></g></svg>